<svg width="645" height="141" viewBox="0 0 645 141" fill="none" xmlns="http://www.w3.org/2000/svg">
<path d="M46.6 3.59999L69.2 61.6L92 3.59999H138.6L86.6 137H52L-2.83122e-07 3.59999H46.6ZM188.202 3.59999L210.802 61.6L233.602 3.59999H280.202L228.202 137H193.602L141.602 3.59999H188.202ZM358.305 49C355.905 46.8667 352.905 45.2667 349.305 44.2C345.705 43 342.171 42.4 338.705 42.4C334.838 42.4 331.305 43.1333 328.105 44.6C324.905 45.9333 322.105 47.8667 319.705 50.4C317.438 52.8 315.638 55.7333 314.305 59.2C312.971 62.6667 312.305 66.4 312.305 70.4C312.305 74.4 313.038 78.1333 314.505 81.6C315.971 85.0667 317.971 88.0667 320.505 90.6C323.038 93 325.971 94.9333 329.305 96.4C332.771 97.7333 336.438 98.4 340.305 98.4C344.838 98.4 348.971 97.4667 352.705 95.6C356.438 93.6 359.638 90.9333 362.305 87.6H350.305V59.6H401.705V104C398.638 109.467 394.971 114.467 390.705 119C386.438 123.4 381.638 127.2 376.305 130.4C371.105 133.6 365.438 136.067 359.305 137.8C353.171 139.533 346.838 140.4 340.305 140.4C330.705 140.4 321.638 138.6 313.105 135C304.571 131.4 297.105 126.467 290.705 120.2C284.438 113.933 279.438 106.533 275.705 98C272.105 89.4667 270.305 80.2667 270.305 70.4C270.305 60.8 272.038 51.7333 275.505 43.2C278.971 34.6667 283.705 27.2667 289.705 21C295.838 14.6 303.038 9.6 311.305 5.99999C319.705 2.26666 328.705 0.399994 338.305 0.399994C345.771 0.399994 352.238 1.13333 357.705 2.59999C363.171 4.06666 367.771 5.73333 371.505 7.6C375.905 9.73333 379.571 12.0667 382.505 14.6L358.305 49ZM412.758 3.59999H457.958V137H412.758V3.59999ZM437.958 121V19.6H432.758V121H437.958ZM471.938 3.59999H550.538V38.6H514.538V53.4H549.938V86.6H514.538V102H551.938V137H471.938V3.59999ZM537.138 121V116.2H497.138V72.4H535.138V67.6H497.138V24.4H537.138V19.6H491.938V121H537.138ZM577.13 119.6C578.996 120 580.996 120.333 583.13 120.6C584.996 120.867 586.93 121.133 588.93 121.4C591.063 121.533 593.196 121.6 595.33 121.6C599.063 121.6 602.663 121.2 606.13 120.4C609.73 119.467 612.93 118 615.73 116C618.53 114 620.73 111.467 622.33 108.4C624.063 105.2 624.93 101.333 624.93 96.8C624.93 92.9333 623.93 89.2667 621.93 85.8C620.063 82.3333 617.596 79 614.53 75.8C611.596 72.6 608.396 69.5333 604.93 66.6C601.596 63.6667 598.396 60.7333 595.33 57.8C592.396 54.7333 589.93 51.7333 587.93 48.8C586.063 45.7333 585.13 42.6 585.13 39.4C585.13 34.6 586.663 30.9333 589.73 28.4C592.796 25.7333 597.73 24.4 604.53 24.4C605.596 24.4 606.663 24.4667 607.73 24.6C608.93 24.6 610.063 24.6667 611.13 24.8C612.196 24.9333 613.263 25 614.33 25V19.8C613.396 19.8 612.396 19.7333 611.33 19.6C610.396 19.4667 609.33 19.4 608.13 19.4C607.063 19.2667 605.93 19.2 604.73 19.2C597.53 19.2 591.596 20.8667 586.93 24.2C582.263 27.4 579.93 32.4667 579.93 39.4C579.93 43.1333 580.863 46.6667 582.73 50C584.73 53.2 587.196 56.4 590.13 59.6C593.196 62.6667 596.396 65.6667 599.73 68.6C603.196 71.5333 606.396 74.5333 609.33 77.6C612.396 80.5333 614.863 83.6 616.73 86.8C618.73 90 619.73 93.3333 619.73 96.8C619.73 103.2 617.53 108.067 613.13 111.4C608.863 114.733 602.93 116.4 595.33 116.4C590.796 116.4 586.663 116.067 582.93 115.4C580.93 115.133 578.996 114.8 577.13 114.4V119.6ZM560.33 95.6C563.263 96.5333 566.33 97.2667 569.53 97.8C572.196 98.4667 575.196 99 578.53 99.4C581.996 99.8 585.463 100 588.93 100C595.063 100 598.13 97.7333 598.13 93.2C598.13 91.4667 597.196 89.7333 595.33 88C593.463 86.1333 591.063 84.1333 588.13 82C585.33 79.7333 582.263 77.2667 578.93 74.6C575.73 71.9333 572.663 68.8667 569.73 65.4C566.93 61.9333 564.596 58.0667 562.73 53.8C560.863 49.4 559.93 44.4 559.93 38.8C559.93 32.5333 561.063 27 563.33 22.2C565.596 17.4 568.73 13.4 572.73 10.2C576.73 6.99999 581.396 4.59999 586.73 3C592.196 1.26666 597.996 0.399994 604.13 0.399994C607.33 0.399994 610.53 0.599996 613.73 0.999999C616.93 1.26666 619.796 1.53333 622.33 1.79999C625.263 2.19999 628.13 2.59999 630.93 3V40.4C629.863 40.2667 628.663 40.1333 627.33 40C626.263 39.8667 625.063 39.7333 623.73 39.6C622.396 39.4667 620.996 39.4 619.53 39.4C618.73 39.4 617.73 39.4667 616.53 39.6C615.33 39.6 614.196 39.7333 613.13 40C612.063 40.2667 611.13 40.7333 610.33 41.4C609.53 42.0667 609.13 43 609.13 44.2C609.13 45.2667 609.996 46.6 611.73 48.2C613.596 49.8 615.796 51.6667 618.33 53.8C620.996 55.9333 623.863 58.4 626.93 61.2C630.13 64 632.996 67.2 635.53 70.8C638.196 74.4 640.396 78.4667 642.13 83C643.996 87.5333 644.93 92.6 644.93 98.2C644.93 104.067 643.996 109.6 642.13 114.8C640.263 119.867 637.33 124.333 633.33 128.2C629.463 131.933 624.463 134.867 618.33 137C612.196 139.267 604.93 140.4 596.53 140.4C591.463 140.4 586.73 140.133 582.33 139.6C578.063 139.2 574.263 138.667 570.93 138C567.063 137.333 563.53 136.533 560.33 135.6V95.6Z" fill="black"/>
</svg>
